{"title":"The Chicago Code S01E02 HDTV_JHW.mp4","uid":6175176,"size":425474523,"categoryP":"video","categoryS":"tv_shows","magnet":"?xt=urn:btih:3798e14d37f0deea019e1de96c9f258b9efa1c00&amp;dn=The+Chicago+Code+S01E02+HDTV_JHW.mp4&amp;tr=udp%3A%2F%2Ftracker.openbittorrent.com%3A80&amp;tr=udp%3A%2F%2Fopen.demonii.com%3A1337&amp;tr=udp%3A%2F%2Ftracker.coppersurfer.tk%3A6969&amp;tr=udp%3A%2F%2Fexodus.desync.com%3A6969","seeders":0,"leechers":1,"uploader":"jameshotwire","files":1,"time":1297747990,"description":"aired on 2/14/2011 S01E02\n\nFollowing the shocking events related to a fallen officer, Teresa and Jarek vow to bring whoever is responsible to justice. In the meantime, Alderman Gibbons pays a visit to the victim's family to offer his condolences and plant a few seeds of betrayal, implicating members of the Chicago Police Department. As every officer in the city hits the streets to avenge this cop killer, Jarek and Caleb follow up on some of Liam's leads, while Vonda and Isaac are promoted to the organized-crime task force.\n\nGeneral\nComplete name                    : The Chicago Code S01E02 HDTV_JHW.mp4\nFormat                           : MPEG-4\nFormat profile                   : Base Media\nCodec ID                         : isom\nFile size                        : 406 MiB\nDuration                         : 43mn 43s\nOverall bit rate                 : 1 297 Kbps\nEncoded date                     : UTC 2011-02-15 04:04:27\nTagged date                      : UTC 2011-02-15 04:04:27\n\nVideo\nID                               : 2\nFormat                           : AVC\nFormat/Info                      : Advanced Video Codec\nFormat profile                   : &lt;a class=&quot;__cf_email__&quot; href=&quot;/cdn-cgi/l/email-protection&quot; data-cfemail=&quot;2466455741484d4a416468170a14&quot;&gt;[email&amp;#160;protected]&lt;/a&gt;&lt;script cf-hash='f9e31' type=&quot;text/javascript&quot;&gt;\n/* &lt;![CDATA[ */!function(){try{var t=&quot;currentScript&quot;in document?document.currentScript:function(){for(var t=document.getElementsByTagName(&quot;script&quot;),e=t.length;e--;)if(t[e].getAttribute(&quot;cf-hash&quot;))return t[e]}();if(t&amp;&amp;t.previousSibling){var e,r,n,i,c=t.previousSibling,a=c.getAttribute(&quot;data-cfemail&quot;);if(a){for(e=&quot;&quot;,r=parseInt(a.substr(0,2),16),n=2;a.length-n;n+=2)i=parseInt(a.substr(n,2),16)^r,e+=String.fromCharCode(i);e=document.createTextNode(e),c.parentNode.replaceChild(e,c)}}}catch(u){}}();/* ]]&gt; */&lt;/script&gt;\nFormat settings, CABAC           : No\nFormat settings, ReFrames        : 1 frame\nCodec ID                         : avc1\nCodec ID/Info                    : Advanced Video Coding\nDuration                         : 43mn 43s\nBit rate mode                    : Constant\nBit rate                         : 1 200 Kbps\nWidth                            : 640 pixels\nHeight                           : 480 pixels\nDisplay aspect ratio             : 4:3\nFrame rate mode                  : Constant\nFrame rate                       : 29.970 fps\nColor space                      : YUV\nChroma subsampling               : 4:2:0\nBit depth                        : 8 bits\nScan type                        : Progressive\nBits/(Pixel*Frame)               : 0.130\nStream size                      : 374 MiB (92%)\nLanguage                         : English\n\nAudio\nID                               : 1\nFormat                           : AAC\nFormat/Info                      : Advanced Audio Codec\nFormat profile                   : LC\nCodec ID                         : 40\nDuration                         : 43mn 43s\nBit rate mode                    : Constant\nBit rate                         : 96.0 Kbps\nChannel(s)                       : 2 channels\nChannel positions                : Front: L R\nSampling rate                    : 44.1 KHz\nCompression mode                 : Lossy\nStream size                      : 30.0 MiB (7%)\nLanguage                         : English\n","torrent":{"xt":"urn:btih:3798e14d37f0deea019e1de96c9f258b9efa1c00","amp;dn":"The+Chicago+Code+S01E02+HDTV_JHW.mp4","amp;tr":["udp%3A%2F%2Ftracker.openbittorrent.com%3A80","udp%3A%2F%2Fopen.demonii.com%3A1337","udp%3A%2F%2Ftracker.coppersurfer.tk%3A6969","udp%3A%2F%2Fexodus.desync.com%3A6969"],"infoHash":"3798e14d37f0deea019e1de96c9f258b9efa1c00","infoHashBuffer":{"type":"Buffer","data":[55,152,225,77,55,240,222,234,1,158,29,233,108,159,37,139,158,250,28,0]},"announce":[],"urlList":[]}}